<svg width="512" height="512" viewBox="0 0 512 512" fill="none" xmlns="http://www.w3.org/2000/svg">
  <circle cx="256" cy="256" r="240" fill="#8B5CF6" stroke="white" stroke-width="12"/>
  <path d="M358.4 332.8C358.4 332.8 384 384 332.8 384C281.6 384 256 358.4 256 358.4C256 358.4 230.4 384 179.2 384C128 384 153.6 332.8 153.6 332.8C153.6 332.8 128 307.2 128 256C128 204.8 166.4 153.6 166.4 153.6L192 102.4L230.4 153.6H281.6L320 102.4L345.6 153.6C345.6 153.6 384 204.8 384 256C384 307.2 358.4 332.8 358.4 332.8ZM217.6 230.4C206.4 230.4 198.4 238.4 198.4 249.6C198.4 260.8 206.4 268.8 217.6 268.8C228.8 268.8 236.8 260.8 236.8 249.6C236.8 238.4 228.8 230.4 217.6 230.4ZM294.4 230.4C283.2 230.4 275.2 238.4 275.2 249.6C275.2 260.8 283.2 268.8 294.4 268.8C305.6 268.8 313.6 260.8 313.6 249.6C313.6 238.4 305.6 230.4 294.4 230.4Z" fill="white"/>
</svg>
